<svg id="Layer_1" data-name="Layer 1" xmlns="http://www.w3.org/2000/svg" viewBox="0 0 571.38 128.24"><defs><style>.cls-1{fill:#1a1a1a;}.cls-2{fill:#5cc1ef;}</style></defs><path class="cls-1" d="M270,117.81H254.62V10.43H270v50l42-50h19.33L286.84,63.05l46,54.76H313.53L270,65.65Z"/><path class="cls-2" d="M83.57,85.75c0,18.72-15.19,33.6-38,33.6-13,0-26.38-6.29-33.75-12.89l6-11.66C24.35,100,35.7,105.08,44.3,105.08c13.65,0,23.31-8.13,23.31-19,0-11-11.19-19.18-24.85-19.18A45.57,45.57,0,0,0,29,69l-3.68-4.91L55.19,25H15.91V10.43H79.27v7.51l-26.84,35C70.84,56,83.57,69.49,83.57,85.75Z"/><path class="cls-1" d="M170.32,119.35c-17.64,0-36.51-8.29-36.51-32.83h15.34c0,14.26,12.74,18.71,21.17,18.71,10.13,0,18.72-4.75,18.72-15.34C189,67.8,135.19,73.78,135.19,38c0-16.88,14.88-29.15,32.53-29.15s35,9.51,35,30.68H187.35c0-12.12-11.2-16.57-19.63-16.57-10,0-17.19,5.83-17.19,13.81,0,20.25,53.85,17.49,53.85,51.85C204.38,108.3,188.43,119.35,170.32,119.35Z"/><path class="cls-1" d="M368,10.43h17.64l25,45.4,25-45.4h17.64l-35,62.89v44.49H402.94V73.32Z"/><path class="cls-1" d="M492.1,10.43h67.5V25H507.44V52.15h36.82V66.73H507.44v36.51H559.6v14.57H492.1Z"/></svg>